<?xml version="1.0" encoding="utf-8"?>
<!-- Generator: Adobe Illustrator 16.0.0, SVG Export Plug-In . SVG Version: 6.00 Build 0)  -->
<!DOCTYPE svg PUBLIC "-//W3C//DTD SVG 1.1//EN" "http://www.w3.org/Graphics/SVG/1.1/DTD/svg11.dtd">
<svg version="1.1" xmlns="http://www.w3.org/2000/svg" xmlns:xlink="http://www.w3.org/1999/xlink" x="0px" y="0px" width="500px"
	 height="500px" viewBox="0 0 500 500" enable-background="new 0 0 500 500" xml:space="preserve">
<g id="Capa_1" display="none">
	<path display="inline" fill="#009BDB" d="M606.083,500.375h9.417l13.815,22.142l0.435-22.142h9.058l14.305-14.418
		c0,0-4.514-1.502-10.853-3.091c-3.15-0.79-6.752-1.602-10.475-2.261c-5.906-1.046-12.115-1.709-17.311-1.296
		c-4.844,0.386-8.807,1.707-10.818,4.527C601.342,487.081,601.608,492.309,606.083,500.375z"/>
	<text transform="matrix(1 0 0 1 302.7949 300.3398)" display="inline" font-family="'Space-Regular'" font-size="52.3578">N</text>
	<text transform="matrix(-0.9854 0 0 1 290.9141 97.0693)" display="inline" font-family="'Space-Regular'" font-size="52.3578">N</text>
	<text transform="matrix(1 0 0 1 302.7949 217.6411)" display="inline" font-family="'Space-Regular'" font-size="52.3578">S</text>
	<text transform="matrix(1.0304 0 0 1 286.9141 97.0693)" display="inline" font-family="'Space-Regular'" font-size="52.3578">S</text>
	<text transform="matrix(1 0 0 1 282.627 393.7686)" display="inline" font-family="'Space-Regular'" font-size="52.3578">NS</text>
	<g display="inline">
		<path fill="#FFFFFF" d="M606.068,484.976c0.034-0.104,0.105-0.157,0.209-0.157c0.244,0,0.803,0.699,1.676,2.095
			c0.872,1.396,2.88,4.73,6.021,10c1.326,2.27,3.351,5.664,6.073,10.184c2.723,4.521,4.311,7.165,4.765,7.933l4.503,7.487
			l0.052-18.588c0.035-12.426,0.158-18.726,0.367-18.9c0.244-0.175,0.471-0.175,0.68,0c0.21,0.175,0.314,3.84,0.314,10.995v9.477
			c-0.035,10.053-0.07,15.934-0.104,17.645c-0.035,1.71-0.175,2.565-0.419,2.565c-0.35,0-3.037-4.207-8.063-12.618l-7.592-12.618
			h-7.54v12.461c0,5.935-0.026,9.572-0.079,10.917c-0.052,1.343-0.218,2.016-0.496,2.016c-0.07,0-0.141-0.019-0.21-0.053
			c-0.21-0.07-0.314-6.876-0.314-20.419S605.964,485.046,606.068,484.976z M610.623,493.981c0-0.21-0.594-1.274-1.779-3.194
			l-1.833-2.932v6.335h1.833C610.029,494.19,610.623,494.121,610.623,493.981z M611.775,495.762
			c-0.175-0.314-0.385-0.506-0.629-0.576c-0.244-0.069-0.89-0.104-1.937-0.104h-2.199v1.57h2.461c1.64,0,2.495-0.034,2.565-0.104
			C612.143,496.442,612.055,496.181,611.775,495.762z M613.294,498.274l-0.472-0.732h-5.812v2.041h3.351
			c1.396,0,2.305-0.017,2.723-0.052c0.42-0.034,0.629-0.157,0.629-0.366C613.713,499.025,613.572,498.729,613.294,498.274z"/>
		<path fill="#FFFFFF" d="M644.289,485.552c1.047-0.349,2.408-0.523,4.084-0.523c1.361,0,2.426,0.122,3.193,0.366
			c2.164,0.628,3.944,1.754,5.341,3.377c1.396,1.623,2.111,3.396,2.146,5.314c0,1.047-0.175,1.57-0.523,1.57
			c-0.245,0-0.411-0.086-0.497-0.262c-0.088-0.174-0.201-0.628-0.341-1.361c-0.313-1.745-0.942-3.193-1.885-4.346
			c-0.349-0.453-0.855-0.924-1.519-1.413c-0.663-0.488-1.135-0.733-1.414-0.733h-0.052c-0.21,0.07-2.408,2.077-6.597,6.021
			l-6.283,5.916l0.838,0.838c1.152,1.152,3.664,2.304,7.539,3.456c2.967,0.908,5.079,1.667,6.336,2.277
			c1.256,0.611,2.32,1.405,3.193,2.382c1.361,1.502,2.094,3.456,2.199,5.864v0.995c0,1.082-0.123,2.008-0.367,2.774
			c-1.117,3.665-3.717,6.126-7.801,7.383c-1.013,0.279-2.164,0.419-3.455,0.419c-1.816,0-3.316-0.21-4.504-0.628
			c-2.164-0.699-3.84-1.746-5.025-3.142c-0.733-0.838-1.371-1.955-1.912-3.352c-0.541-1.396-0.811-2.53-0.811-3.403
			c0-0.453,0.086-0.767,0.262-0.942c0.174-0.174,0.331-0.262,0.471-0.262c0.419,0,0.698,0.576,0.838,1.729
			c0.279,2.06,1.082,3.821,2.408,5.288c1.326,1.466,3.055,2.442,5.184,2.932c0.943,0.209,1.867,0.314,2.775,0.314
			c2.094,0,4.039-0.489,5.838-1.466c1.797-0.979,3.063-2.286,3.796-3.928c0.593-1.291,0.89-2.704,0.89-4.24
			c0-1.396-0.227-2.565-0.68-3.509c-0.595-1.325-1.624-2.425-3.09-3.298c-1.466-0.872-3.805-1.798-7.016-2.775
			c-2.34-0.697-4.137-1.343-5.393-1.938c-3.037-1.5-4.766-3.699-5.184-6.597c-0.07-0.697-0.105-1.187-0.105-1.466
			c0-2.199,0.637-4.18,1.912-5.942C640.354,487.48,642.09,486.25,644.289,485.552z M647.692,486.39
			c-0.628,0.07-1.118,0.209-1.466,0.419c-0.35,0.209-0.855,0.646-1.519,1.309c-0.873,0.873-2.147,2.112-3.822,3.718
			c-1.013,0.978-1.649,1.632-1.911,1.963c-0.262,0.332-0.393,0.673-0.393,1.021c0,0.279,0.018,0.463,0.053,0.55
			c0.033,0.087,0.121,0.096,0.262,0.025c0.348-0.209,1.963-1.701,4.843-4.477c2.88-2.774,4.319-4.231,4.319-4.371
			C648.059,486.441,647.936,486.39,647.692,486.39z M651.566,487.07c0-0.105-0.235-0.21-0.707-0.314
			c-0.471-0.104-0.794-0.157-0.969-0.157c-0.174,0-2.067,1.72-5.68,5.157c-3.613,3.438-5.42,5.245-5.42,5.419
			c0,0.176,0.105,0.472,0.314,0.891l0.262,0.575l1.257-1.099C647.919,490.7,651.566,487.21,651.566,487.07z M642.299,489.06
			c0.314-0.314,0.603-0.61,0.864-0.89c0.263-0.279,0.462-0.506,0.603-0.681l0.209-0.21c-0.07,0-0.453,0.192-1.152,0.576
			c-1.432,0.804-2.479,1.832-3.141,3.089l-0.471,0.891l0.627-0.472C640.467,490.84,641.287,490.072,642.299,489.06z"/>
	</g>
	<g display="inline">
		<polygon fill="#009BDB" points="694.583,500.375 704,500.375 717.815,522.517 718.25,500.375 727.308,500.375 741.612,485.957 
			737.462,485.037 694.568,484.976 		"/>
		<g>
			<path fill="#FFFFFF" d="M694.568,484.976c0.034-0.104,0.105-0.157,0.209-0.157c0.244,0,0.803,0.699,1.676,2.095
				c0.872,1.396,2.88,4.73,6.021,10c1.326,2.27,3.351,5.664,6.073,10.184c2.723,4.521,4.311,7.165,4.765,7.933l4.503,7.487
				l0.052-18.588c0.035-12.426,0.158-18.726,0.367-18.9c0.244-0.175,0.471-0.175,0.68,0c0.21,0.175,0.314,3.84,0.314,10.995v9.477
				c-0.035,10.053-0.07,15.934-0.104,17.645c-0.035,1.71-0.175,2.565-0.419,2.565c-0.35,0-3.037-4.207-8.063-12.618l-7.592-12.618
				h-7.54v12.461c0,5.935-0.026,9.572-0.079,10.917c-0.052,1.343-0.218,2.016-0.496,2.016c-0.07,0-0.141-0.019-0.21-0.053
				c-0.21-0.07-0.314-6.876-0.314-20.419S694.464,485.046,694.568,484.976z M699.123,493.981c0-0.21-0.594-1.274-1.779-3.194
				l-1.833-2.932v6.335h1.833C698.529,494.19,699.123,494.121,699.123,493.981z M700.275,495.762
				c-0.175-0.314-0.385-0.506-0.629-0.576c-0.244-0.069-0.89-0.104-1.937-0.104h-2.199v1.57h2.461c1.64,0,2.495-0.034,2.565-0.104
				C700.643,496.442,700.555,496.181,700.275,495.762z M701.794,498.274l-0.472-0.732h-5.812v2.041h3.351
				c1.396,0,2.305-0.017,2.723-0.052c0.42-0.034,0.629-0.157,0.629-0.366C702.213,499.025,702.072,498.729,701.794,498.274z"/>
			<path fill="#FFFFFF" d="M732.789,485.552c1.047-0.349,2.408-0.523,4.084-0.523c1.361,0,2.426,0.122,3.193,0.366
				c2.164,0.628,3.944,1.754,5.341,3.377c1.396,1.623,2.111,3.396,2.146,5.314c0,1.047-0.175,1.57-0.523,1.57
				c-0.245,0-0.411-0.086-0.497-0.262c-0.088-0.174-0.201-0.628-0.341-1.361c-0.313-1.745-0.942-3.193-1.885-4.346
				c-0.349-0.453-0.855-0.924-1.519-1.413c-0.663-0.488-1.135-0.733-1.414-0.733h-0.052c-0.21,0.07-2.408,2.077-6.597,6.021
				l-6.283,5.916l0.838,0.838c1.152,1.152,3.664,2.304,7.539,3.456c2.967,0.908,5.079,1.667,6.336,2.277
				c1.256,0.611,2.32,1.405,3.193,2.382c1.361,1.502,2.094,3.456,2.199,5.864v0.995c0,1.082-0.123,2.008-0.367,2.774
				c-1.117,3.665-3.717,6.126-7.801,7.383c-1.013,0.279-2.164,0.419-3.455,0.419c-1.816,0-3.316-0.21-4.504-0.628
				c-2.164-0.699-3.84-1.746-5.025-3.142c-0.733-0.838-1.371-1.955-1.912-3.352c-0.541-1.396-0.811-2.53-0.811-3.403
				c0-0.453,0.086-0.767,0.262-0.942c0.174-0.174,0.331-0.262,0.471-0.262c0.419,0,0.698,0.576,0.838,1.729
				c0.279,2.06,1.082,3.821,2.408,5.288c1.326,1.466,3.055,2.442,5.184,2.932c0.943,0.209,1.867,0.314,2.775,0.314
				c2.094,0,4.039-0.489,5.838-1.466c1.797-0.979,3.063-2.286,3.796-3.928c0.593-1.291,0.89-2.704,0.89-4.24
				c0-1.396-0.227-2.565-0.68-3.509c-0.595-1.325-1.624-2.425-3.09-3.298c-1.466-0.872-3.805-1.798-7.016-2.775
				c-2.34-0.697-4.137-1.343-5.393-1.938c-3.037-1.5-4.766-3.699-5.184-6.597c-0.07-0.697-0.105-1.187-0.105-1.466
				c0-2.199,0.637-4.18,1.912-5.942C728.854,487.48,730.59,486.25,732.789,485.552z M736.192,486.39
				c-0.628,0.07-1.118,0.209-1.466,0.419c-0.35,0.209-0.855,0.646-1.519,1.309c-0.873,0.873-2.147,2.112-3.822,3.718
				c-1.013,0.978-1.649,1.632-1.911,1.963c-0.262,0.332-0.393,0.673-0.393,1.021c0,0.279,0.018,0.463,0.053,0.55
				c0.033,0.087,0.121,0.096,0.262,0.025c0.348-0.209,1.963-1.701,4.843-4.477c2.88-2.774,4.319-4.231,4.319-4.371
				C736.559,486.441,736.436,486.39,736.192,486.39z M740.066,487.07c0-0.105-0.235-0.21-0.707-0.314
				c-0.471-0.104-0.794-0.157-0.969-0.157c-0.174,0-2.067,1.72-5.68,5.157c-3.613,3.438-5.42,5.245-5.42,5.419
				c0,0.176,0.105,0.472,0.314,0.891l0.262,0.575l1.257-1.099C736.419,490.7,740.066,487.21,740.066,487.07z M730.799,489.06
				c0.314-0.314,0.603-0.61,0.864-0.89c0.263-0.279,0.462-0.506,0.603-0.681l0.209-0.21c-0.07,0-0.453,0.192-1.152,0.576
				c-1.432,0.804-2.479,1.832-3.141,3.089l-0.471,0.891l0.627-0.472C728.967,490.84,729.787,490.072,730.799,489.06z"/>
		</g>
	</g>
	<text transform="matrix(1 0 0 1 226.7944 300.3398)" display="inline" font-family="'ShowcardGothic-Reg'" font-size="52.3578">N</text>
	<text transform="matrix(1 0 0 1 130.1274 63.0059)" display="inline" font-family="'ShowcardGothic-Reg'" font-size="52.3578">N</text>
	<text transform="matrix(1 0 0 1 226.7944 217.6411)" display="inline" font-family="'ShowcardGothic-Reg'" font-size="52.3578">S</text>
	
		<text transform="matrix(0.8382 0.5454 -0.5454 0.8382 150.666 56.2813)" display="inline" font-family="'ShowcardGothic-Reg'" font-size="52.3578">S</text>
	<text transform="matrix(1 0 0 1 206.6274 393.7686)" display="inline" font-family="'ShowcardGothic-Reg'" font-size="52.3578">NS</text>
	<text transform="matrix(1 0 0 1 137.0801 300.3398)" display="inline" font-family="'Potra'" font-size="52.3578">N</text>
	<text transform="matrix(1 0 0 1 79.7471 134.6729)" display="inline" font-family="'Potra'" font-size="52.3578">N</text>
	<text transform="matrix(1 0 0 1 137.0801 217.6411)" display="inline" font-family="'Potra'" font-size="52.3578">S</text>
	<text transform="matrix(1 0 0 1 112.0801 134.6729)" display="inline" font-family="'Potra'" font-size="52.3578">S</text>
	<text transform="matrix(1 0 0 1 116.9131 393.7686)" display="inline" font-family="'Potra'" font-size="52.3578">NS</text>
	<text transform="matrix(1 0 0 1 37.0801 300.3398)" display="inline" font-family="'PoiretOne-Regular'" font-size="52.3578">N</text>
	<text transform="matrix(1 0 0 1 7.0801 202.3403)" display="inline" font-family="'PoiretOne-Regular'" font-size="52.3578">N</text>
	<text transform="matrix(1 0 0 1 37.0801 217.6411)" display="inline" font-family="'PoiretOne-Regular'" font-size="52.3578">S</text>
	<text transform="matrix(1 0 0 1 16.9131 393.7686)" display="inline" font-family="'PoiretOne-Regular'" font-size="52.3578">NS</text>
	<text transform="matrix(1 0 0 1 670.793 300.3398)" display="inline" font-family="'Microsoft-Yi-Baiti'" font-size="52.3578">N</text>
	<text transform="matrix(1 0 0 1 670.793 217.6411)" display="inline" font-family="'Microsoft-Yi-Baiti'" font-size="52.3578">S</text>
	<text transform="matrix(1 0 0 1 650.627 393.7686)" display="inline" font-family="'Microsoft-Yi-Baiti'" font-size="52.3578">NS</text>
	<text transform="matrix(1 0 0 1 520.168 300.3398)" display="inline" font-family="'Lato-Hairline'" font-size="52.3578">N</text>
	<text transform="matrix(1 0 0 1 520.168 217.6411)" display="inline" font-family="'Lato-Hairline'" font-size="52.3578">S</text>
	<text transform="matrix(1 0 0 1 500 393.7686)" display="inline" font-family="'Lato-Hairline'" font-size="52.3578">NS</text>
	<text transform="matrix(1 0 0 1 597.0801 300.3398)" display="inline" font-family="'Astrobia'" font-size="52.3578">N</text>
	<text transform="matrix(1 0 0 1 597.0801 217.6411)" display="inline" font-family="'Astrobia'" font-size="52.3578">S</text>
	<g display="inline">
		<rect x="625.373" y="82.693" fill="#FFFDEC" width="46.988" height="54.352"/>
		<g>
			<path fill="#009BDB" d="M626.734,84.159h-1.361v-1.466h1.938l19.999,19.999V82.693h2.146v1.466h-0.628v22.146L626.734,84.159z
				 M649.561,117.875v1.466h-2.827v-1.466h0.681l-0.053-9.267l-19.789-19.842v29.108h0.681v1.466h-2.88v-1.466h0.733V85.206
				l22.722,22.774l0.052,9.895H649.561z"/>
		</g>
		<g>
			<path fill="#009BDB" d="M671.472,130.606c-1.675,3.77-5.444,6.439-9.896,6.439h-12.354v-2.146h1.466v0.681h10.889
				c3.352,0,6.439-1.78,8.115-4.712l-20.365-20.313l0.262-1.832L671.472,130.606z M670.896,102.493v-0.628h-10.837
				c-3.561,0-6.701,1.989-8.324,5.183l20.522,20.522c-0.052,0.576-0.104,0.89-0.313,1.78l-21.988-21.988
				c2.25-4.974,6.125-7.015,10.104-7.015h12.303v2.146H670.896z"/>
		</g>
	</g>
	<text transform="matrix(1 0 0 1 576.9141 393.7686)" display="inline" font-family="'Astrobia'" font-size="52.3578">NS</text>
</g>
<g id="Capa_2" display="none">
	<g display="inline">
		<path fill="#C8585A" d="M52.168,20.194H40V7.092h17.318l178.76,178.75V7.092h19.186v13.102h-5.613v197.945L52.168,20.194z
			 M256.198,321.551v13.102h-25.271v-13.102h6.084l-0.471-82.829L59.657,61.368v260.183h6.084v13.102H40v-13.102h6.555v-292
			L249.65,233.109l0.463,88.441H256.198z"/>
	</g>
	<g display="inline">
		<path fill="#C8585A" d="M452.048,435.35c-14.97,33.693-48.664,57.558-88.45,57.558h-110.43v-19.186h13.103v6.084h97.327
			c29.958,0,57.559-15.913,72.537-42.117L254.103,256.128l2.339-16.375L452.048,435.35z M446.897,184.062v-5.612h-96.864
			c-31.826,0-59.897,17.78-74.405,46.324l183.438,183.438c-0.462,5.15-0.934,7.953-2.802,15.914L259.725,227.584
			c20.11-44.457,54.747-62.708,90.309-62.708H460v19.186H446.897z"/>
	</g>
	
		<line display="inline" fill="none" stroke="#585858" stroke-width="5" stroke-miterlimit="10" x1="51.494" y1="27.507" x2="450.543" y2="427.458"/>
</g>
<g id="Capa_3">
	<circle fill="#A6A5AA" cx="-865.211" cy="268.334" r="303.401"/>
	<path fill="#009BDB" d="M-1199.876,209.001l195.287-11.554l127.11,222.887l5.603-213.333l80.666-2l118-122
		c0,0,56.667-21.333,58.667-21.333s-32-105.333-32-105.333h-300l-243.333,57.333L-1199.876,209.001z"/>
	<polygon fill="#009BDB" points="-1089.729,205.146 -1004.703,205.146 -879.963,405.063 -876.04,205.146 -794.254,205.146 
		-665.098,74.967 -702.572,66.661 -1089.861,66.105 	"/>
	<g>
		<path fill="#303030" d="M-1089.861,66.105c0.309-0.943,0.952-1.42,1.887-1.42c2.204,0,7.248,6.313,15.13,18.913
			c7.874,12.609,26.002,42.711,54.368,90.29c11.974,20.491,30.252,51.141,54.835,91.947c24.583,40.815,38.92,64.693,43.02,71.623
			l40.657,67.604l0.467-167.83c0.318-112.192,1.429-169.073,3.315-170.651c2.205-1.579,4.25-1.579,6.137,0
			c1.896,1.578,2.839,34.669,2.839,99.274v85.564c-0.317,90.766-0.635,143.863-0.944,159.312
			c-0.317,15.439-1.578,23.163-3.783,23.163c-3.156,0-27.422-37.984-72.796-113.929l-68.546-113.929h-68.079v112.509
			c0,53.583-0.238,86.428-0.714,98.569c-0.468,12.124-1.966,18.199-4.479,18.199c-0.635,0-1.27-0.168-1.896-0.477
			c-1.896-0.635-2.839-62.083-2.839-184.362S-1090.804,66.74-1089.861,66.105z M-1048.737,147.419
			c0-1.896-5.36-11.507-16.065-28.842l-16.55-26.47v57.198h16.55C-1054.097,149.306-1048.737,148.68-1048.737,147.419z
			 M-1038.332,163.493c-1.579-2.839-3.474-4.567-5.678-5.202c-2.205-0.626-8.033-0.944-17.485-0.944h-19.857v14.178h22.22
			c14.805,0,22.528-0.309,23.163-0.943C-1035.017,169.639-1035.81,167.275-1038.332,163.493z M-1024.621,186.18l-4.259-6.613
			h-52.472v18.428h30.252c12.609,0,20.809-0.149,24.583-0.467c3.792-0.309,5.679-1.419,5.679-3.306
			C-1020.838,192.96-1022.108,190.28-1024.621,186.18z"/>
		<path fill="#303030" d="M-744.771,71.308c9.451-3.148,21.743-4.726,36.874-4.726c12.291,0,21.901,1.102,28.832,3.306
			c19.54,5.67,35.622,15.836,48.231,30.491c12.591,14.654,19.063,30.658,19.381,47.984c0,9.452-1.588,14.179-4.727,14.179
			c-2.222,0-3.721-0.776-4.497-2.363c-0.794-1.569-1.816-5.67-3.068-12.292c-2.839-15.756-8.518-28.833-17.018-39.237
			c-3.156-4.091-7.724-8.341-13.72-12.758c-5.979-4.409-10.246-6.622-12.768-6.622h-0.458c-1.905,0.635-21.744,18.754-59.57,54.368
			l-56.731,53.416l7.566,7.565c10.404,10.404,33.082,20.8,68.069,31.205c26.787,8.2,45.868,15.051,57.207,20.562
			c11.339,5.52,20.95,12.688,28.833,21.506c12.291,13.561,18.904,31.204,19.856,52.948v8.984c0,9.77-1.111,18.129-3.315,25.051
			c-10.087,33.091-33.559,55.311-70.433,66.658c-9.135,2.522-19.54,3.783-31.196,3.783c-16.4,0-29.943-1.896-40.666-5.67
			c-19.539-6.313-34.669-15.766-45.373-28.365c-6.613-7.565-12.38-17.652-17.265-30.262c-4.885-12.6-7.318-22.846-7.318-30.728
			c0-4.092,0.775-6.922,2.362-8.509c1.57-1.57,2.998-2.363,4.25-2.363c3.792,0,6.313,5.202,7.565,15.606
			c2.522,18.596,9.771,34.503,21.744,47.746c11.974,13.235,27.581,22.052,46.802,26.47c8.518,1.887,16.859,2.84,25.06,2.84
			c18.904,0,36.469-4.418,52.71-13.235c16.224-8.835,27.651-20.642,34.282-35.464c5.343-11.656,8.023-24.415,8.023-38.285
			c0-12.6-2.046-23.162-6.137-31.68c-5.361-11.966-14.654-21.895-27.898-29.776c-13.226-7.874-34.353-16.233-63.344-25.06
			c-21.126-6.295-37.351-12.124-48.689-17.493c-27.422-13.544-43.028-33.4-46.803-59.562c-0.635-6.295-0.952-10.713-0.952-13.234
			c0-19.857,5.749-37.738,17.265-53.654C-780.305,88.722-764.628,77.612-744.771,71.308z M-714.035,78.873
			c-5.678,0.635-10.104,1.887-13.243,3.782c-3.157,1.887-7.724,5.828-13.702,11.815c-7.883,7.883-19.398,19.072-34.512,33.567
			c-9.152,8.826-14.9,14.734-17.264,17.723c-2.363,2.998-3.545,6.075-3.545,9.223c0,2.521,0.159,4.179,0.477,4.964
			c0.3,0.785,1.093,0.864,2.363,0.229c3.139-1.887,17.723-15.36,43.733-40.419c25.993-25.05,38.99-38.206,38.99-39.466
			C-710.737,79.34-711.847,78.873-714.035,78.873z M-679.065,85.019c0-0.952-2.116-1.896-6.384-2.839
			c-4.25-0.944-7.159-1.42-8.746-1.42c-1.57,0-18.658,15.527-51.282,46.564c-32.624,31.046-48.937,47.358-48.937,48.928
			c0,1.587,0.953,4.259,2.84,8.041l2.363,5.193l11.356-9.919C-711.989,117.793-679.065,86.279-679.065,85.019z M-762.742,102.979
			c2.84-2.839,5.449-5.511,7.813-8.033s4.162-4.567,5.432-6.146l1.887-1.896c-0.635,0-4.091,1.737-10.404,5.202
			c-12.926,7.257-22.379,16.542-28.356,27.89l-4.25,8.041l5.661-4.259C-779.283,119.054-771.876,112.123-762.742,102.979z"/>
	</g>
	<g>
		<g>
			<path fill="#8F8F8F" d="M1170.102,8.919c-16.713,6.131-36.946,13.749-36.946,13.749l-118,122l-80.666,2l-5.604,213.333
				L801.776,137.113l-157.771,9.334c-4.097,19.877-6.253,40.463-6.253,61.553c0,167.563,135.838,303.401,303.4,303.401
				c167.563,0,303.402-135.838,303.402-303.401C1244.556,131.819,1216.473,62.201,1170.102,8.919z"/>
			<path fill="#009BDB" d="M928.886,360.001l5.604-213.333l80.666-2l118-122c0,0,20.233-7.617,36.946-13.749
				c-55.624-63.914-137.565-104.32-228.948-104.32c-146.473,0-268.699,103.797-297.147,241.849l157.771-9.334L928.886,360.001z"/>
		</g>
		<g>
			<path fill="#303030" d="M716.019,6.337c0.309-0.943,0.952-1.42,1.887-1.42c2.205,0,7.248,6.313,15.131,18.913
				c7.874,12.609,26.002,42.711,54.368,90.29c11.974,20.491,30.252,51.141,54.835,91.947c24.583,40.815,38.92,64.692,43.02,71.622
				l40.657,67.604l0.467-167.829C926.7,65.272,927.812,8.391,929.698,6.813c2.205-1.579,4.25-1.579,6.137,0
				c1.896,1.578,2.84,34.669,2.84,99.274v85.564c-0.317,90.765-0.635,143.862-0.943,159.312
				c-0.318,15.439-1.578,23.162-3.783,23.162c-3.156,0-27.422-37.984-72.796-113.928l-68.546-113.929h-68.079v112.509
				c0,53.582-0.237,86.428-0.714,98.568c-0.468,12.125-1.967,18.199-4.479,18.199c-0.635,0-1.27-0.168-1.896-0.477
				c-1.896-0.635-2.84-62.082-2.84-184.361S715.075,6.972,716.019,6.337z M757.143,87.65c0-1.896-5.36-11.507-16.065-28.842
				l-16.55-26.47v57.198h16.55C751.782,89.537,757.143,88.911,757.143,87.65z M767.548,103.725
				c-1.579-2.839-3.475-4.567-5.679-5.202c-2.204-0.626-8.032-0.944-17.485-0.944h-19.856v14.178h22.22
				c14.805,0,22.528-0.309,23.163-0.943C770.862,109.87,770.069,107.507,767.548,103.725z M781.259,126.411l-4.26-6.613h-52.472
				v18.428h30.253c12.608,0,20.809-0.149,24.582-0.467c3.792-0.309,5.679-1.419,5.679-3.306
				C785.041,133.192,783.771,130.512,781.259,126.411z"/>
			<path fill="#303030" d="M1061.108,11.539c9.451-3.148,21.743-4.726,36.874-4.726c12.291,0,21.901,1.102,28.832,3.306
				c19.54,5.67,35.622,15.836,48.231,30.491c12.591,14.654,19.063,30.658,19.381,47.984c0,9.452-1.588,14.179-4.727,14.179
				c-2.222,0-3.721-0.776-4.497-2.363c-0.794-1.569-1.816-5.67-3.068-12.292c-2.839-15.756-8.518-28.833-17.018-39.237
				c-3.156-4.091-7.724-8.341-13.72-12.758c-5.979-4.409-10.246-6.622-12.768-6.622h-0.458c-1.905,0.635-21.744,18.754-59.57,54.368
				l-56.731,53.416l7.566,7.565c10.404,10.404,33.082,20.8,68.069,31.205c26.787,8.2,45.868,15.051,57.207,20.562
				c11.339,5.52,20.95,12.688,28.833,21.506c12.291,13.561,18.904,31.204,19.856,52.947v8.984c0,9.77-1.111,18.129-3.315,25.051
				c-10.087,33.092-33.559,55.311-70.433,66.658c-9.135,2.523-19.54,3.783-31.196,3.783c-16.4,0-29.943-1.895-40.666-5.67
				c-19.539-6.313-34.669-15.766-45.373-28.365c-6.613-7.564-12.38-17.652-17.265-30.262c-4.885-12.6-7.318-22.846-7.318-30.727
				c0-4.092,0.775-6.922,2.362-8.51c1.57-1.57,2.998-2.363,4.25-2.363c3.792,0,6.313,5.203,7.565,15.607
				c2.522,18.596,9.771,34.502,21.744,47.746c11.974,13.234,27.581,22.051,46.802,26.469c8.518,1.887,16.859,2.84,25.06,2.84
				c18.904,0,36.469-4.418,52.71-13.234c16.224-8.836,27.651-20.643,34.282-35.465c5.343-11.656,8.023-24.414,8.023-38.285
				c0-12.6-2.046-23.16-6.137-31.679c-5.361-11.966-14.654-21.895-27.898-29.776c-13.226-7.874-34.353-16.233-63.344-25.06
				c-21.126-6.295-37.351-12.124-48.689-17.493c-27.422-13.544-43.028-33.4-46.803-59.562c-0.635-6.295-0.952-10.713-0.952-13.234
				c0-19.857,5.749-37.738,17.265-53.654C1025.574,28.953,1041.251,17.843,1061.108,11.539z M1091.845,19.104
				c-5.678,0.635-10.104,1.887-13.243,3.782c-3.157,1.887-7.724,5.828-13.702,11.815c-7.883,7.883-19.398,19.072-34.512,33.567
				c-9.152,8.826-14.9,14.734-17.264,17.723c-2.363,2.998-3.545,6.075-3.545,9.223c0,2.521,0.159,4.179,0.477,4.964
				c0.3,0.785,1.093,0.864,2.363,0.229c3.139-1.887,17.723-15.36,43.733-40.419c25.993-25.05,38.99-38.206,38.99-39.466
				C1095.143,19.571,1094.032,19.104,1091.845,19.104z M1126.814,25.25c0-0.952-2.116-1.896-6.384-2.839
				c-4.25-0.944-7.159-1.42-8.746-1.42c-1.57,0-18.658,15.527-51.282,46.564c-32.624,31.046-48.937,47.358-48.937,48.928
				c0,1.587,0.953,4.259,2.84,8.041l2.363,5.193l11.356-9.919C1093.891,58.024,1126.814,26.511,1126.814,25.25z M1043.138,43.211
				c2.84-2.839,5.449-5.511,7.813-8.033s4.162-4.567,5.432-6.146l1.887-1.896c-0.635,0-4.091,1.737-10.404,5.202
				c-12.926,7.257-22.379,16.542-28.356,27.89l-4.25,8.041l5.661-4.259C1026.597,59.285,1034.003,52.354,1043.138,43.211z"/>
		</g>
	</g>
	<g>
		<path fill="#303030" d="M2619.102,8.919c-16.713,6.131-36.946,13.749-36.946,13.749l-118,122l-80.666,2l-5.604,213.333
			l-127.109-222.888l-157.771,9.334c-4.097,19.877-6.253,40.463-6.253,61.553c0,167.563,135.838,303.401,303.4,303.401
			c167.563,0,303.402-135.838,303.402-303.401C2693.556,131.819,2665.473,62.201,2619.102,8.919z"/>
		<path fill="#009BDB" d="M2377.886,360.001l5.604-213.333l80.666-2l118-122c0,0,20.233-7.617,36.946-13.749
			c-55.624-63.914-137.565-104.32-228.948-104.32c-146.473,0-268.699,103.797-297.147,241.849l157.771-9.334L2377.886,360.001z"/>
		<g>
			<path fill="#FFFFFF" d="M2165.019,6.337c0.309-0.943,0.952-1.42,1.887-1.42c2.205,0,7.248,6.313,15.131,18.913
				c7.874,12.609,26.002,42.711,54.368,90.29c11.974,20.491,30.252,51.141,54.835,91.947c24.583,40.815,38.92,64.692,43.02,71.622
				l40.657,67.604l0.467-167.829c0.317-112.192,1.429-169.073,3.315-170.651c2.205-1.579,4.25-1.579,6.137,0
				c1.896,1.578,2.84,34.669,2.84,99.274v85.564c-0.317,90.765-0.635,143.862-0.943,159.312
				c-0.318,15.439-1.578,23.162-3.783,23.162c-3.156,0-27.422-37.984-72.796-113.928l-68.546-113.929h-68.079v112.509
				c0,53.582-0.237,86.428-0.714,98.568c-0.468,12.125-1.967,18.199-4.479,18.199c-0.635,0-1.27-0.168-1.896-0.477
				c-1.896-0.635-2.84-62.082-2.84-184.361S2164.075,6.972,2165.019,6.337z M2206.143,87.65c0-1.896-5.36-11.507-16.065-28.842
				l-16.55-26.47v57.198h16.55C2200.782,89.537,2206.143,88.911,2206.143,87.65z M2216.548,103.725
				c-1.579-2.839-3.475-4.567-5.679-5.202c-2.204-0.626-8.032-0.944-17.485-0.944h-19.856v14.178h22.22
				c14.805,0,22.528-0.309,23.163-0.943C2219.862,109.87,2219.069,107.507,2216.548,103.725z M2230.259,126.411l-4.26-6.613h-52.472
				v18.428h30.253c12.608,0,20.809-0.149,24.582-0.467c3.792-0.309,5.679-1.419,5.679-3.306
				C2234.041,133.192,2232.771,130.512,2230.259,126.411z"/>
			<path fill="#FFFFFF" d="M2510.108,11.539c9.451-3.148,21.743-4.726,36.874-4.726c12.291,0,21.901,1.102,28.832,3.306
				c19.54,5.67,35.622,15.836,48.231,30.491c12.591,14.654,19.063,30.658,19.381,47.984c0,9.452-1.588,14.179-4.727,14.179
				c-2.222,0-3.721-0.776-4.497-2.363c-0.794-1.569-1.816-5.67-3.068-12.292c-2.839-15.756-8.518-28.833-17.018-39.237
				c-3.156-4.091-7.724-8.341-13.72-12.758c-5.979-4.409-10.246-6.622-12.768-6.622h-0.458c-1.905,0.635-21.744,18.754-59.57,54.368
				l-56.731,53.416l7.566,7.565c10.404,10.404,33.082,20.8,68.069,31.205c26.787,8.2,45.868,15.051,57.207,20.562
				c11.339,5.52,20.95,12.688,28.833,21.506c12.291,13.561,18.904,31.204,19.856,52.947v8.984c0,9.77-1.111,18.129-3.315,25.051
				c-10.087,33.092-33.559,55.311-70.433,66.658c-9.135,2.523-19.54,3.783-31.196,3.783c-16.4,0-29.943-1.895-40.666-5.67
				c-19.539-6.313-34.669-15.766-45.373-28.365c-6.613-7.564-12.38-17.652-17.265-30.262c-4.885-12.6-7.318-22.846-7.318-30.727
				c0-4.092,0.775-6.922,2.362-8.51c1.57-1.57,2.998-2.363,4.25-2.363c3.792,0,6.313,5.203,7.565,15.607
				c2.522,18.596,9.771,34.502,21.744,47.746c11.974,13.234,27.581,22.051,46.802,26.469c8.518,1.887,16.859,2.84,25.06,2.84
				c18.904,0,36.469-4.418,52.71-13.234c16.224-8.836,27.651-20.643,34.282-35.465c5.343-11.656,8.023-24.414,8.023-38.285
				c0-12.6-2.046-23.16-6.137-31.679c-5.361-11.966-14.654-21.895-27.898-29.776c-13.226-7.874-34.353-16.233-63.344-25.06
				c-21.126-6.295-37.351-12.124-48.689-17.493c-27.422-13.544-43.028-33.4-46.803-59.562c-0.635-6.295-0.952-10.713-0.952-13.234
				c0-19.857,5.749-37.738,17.265-53.654C2474.574,28.953,2490.251,17.843,2510.108,11.539z M2540.845,19.104
				c-5.678,0.635-10.104,1.887-13.243,3.782c-3.157,1.887-7.724,5.828-13.702,11.815c-7.883,7.883-19.398,19.072-34.512,33.567
				c-9.152,8.826-14.9,14.734-17.264,17.723c-2.363,2.998-3.545,6.075-3.545,9.223c0,2.521,0.159,4.179,0.477,4.964
				c0.3,0.785,1.093,0.864,2.363,0.229c3.139-1.887,17.723-15.36,43.733-40.419c25.993-25.05,38.99-38.206,38.99-39.466
				C2544.143,19.571,2543.032,19.104,2540.845,19.104z M2575.814,25.25c0-0.952-2.116-1.896-6.384-2.839
				c-4.25-0.944-7.159-1.42-8.746-1.42c-1.57,0-18.658,15.527-51.282,46.564c-32.624,31.046-48.937,47.358-48.937,48.928
				c0,1.587,0.953,4.259,2.84,8.041l2.363,5.193l11.356-9.919C2542.891,58.024,2575.814,26.511,2575.814,25.25z M2492.138,43.211
				c2.84-2.839,5.449-5.511,7.813-8.033s4.162-4.567,5.432-6.146l1.887-1.896c-0.635,0-4.091,1.737-10.404,5.202
				c-12.926,7.257-22.379,16.542-28.356,27.89l-4.25,8.041l5.661-4.259C2475.597,59.285,2483.003,52.354,2492.138,43.211z"/>
		</g>
	</g>
	<g>
		<path fill="#009BDB" d="M1954.635,8.919c-16.713,6.131-36.946,13.749-36.946,13.749l-118,122l-80.666,2l-5.604,213.333
			L1586.31,137.113l-157.771,9.334c-4.097,19.877-6.253,40.463-6.253,61.553c0,167.563,135.838,303.401,303.4,303.401
			c167.563,0,303.402-135.838,303.402-303.401C2029.089,131.819,2001.006,62.201,1954.635,8.919z"/>
		<path fill="#303030" d="M1713.419,360.001l5.604-213.333l80.666-2l118-122c0,0,20.233-7.617,36.946-13.749
			c-55.624-63.914-137.565-104.32-228.948-104.32c-146.473,0-268.699,103.797-297.147,241.849l157.771-9.334L1713.419,360.001z"/>
		<g>
			<path fill="#FFFFFF" d="M1500.552,6.337c0.309-0.943,0.952-1.42,1.887-1.42c2.205,0,7.248,6.313,15.131,18.913
				c7.874,12.609,26.002,42.711,54.368,90.29c11.974,20.491,30.252,51.141,54.835,91.947c24.583,40.815,38.92,64.692,43.02,71.622
				l40.657,67.604l0.467-167.829c0.317-112.192,1.429-169.073,3.315-170.651c2.205-1.579,4.25-1.579,6.137,0
				c1.896,1.578,2.84,34.669,2.84,99.274v85.564c-0.317,90.765-0.635,143.862-0.943,159.312
				c-0.318,15.439-1.578,23.162-3.783,23.162c-3.156,0-27.422-37.984-72.796-113.928l-68.546-113.929h-68.079v112.509
				c0,53.582-0.237,86.428-0.714,98.568c-0.468,12.125-1.967,18.199-4.479,18.199c-0.635,0-1.27-0.168-1.896-0.477
				c-1.896-0.635-2.84-62.082-2.84-184.361S1499.608,6.972,1500.552,6.337z M1541.676,87.65c0-1.896-5.36-11.507-16.065-28.842
				l-16.55-26.47v57.198h16.55C1536.315,89.537,1541.676,88.911,1541.676,87.65z M1552.081,103.725
				c-1.579-2.839-3.475-4.567-5.679-5.202c-2.204-0.626-8.032-0.944-17.485-0.944h-19.856v14.178h22.22
				c14.805,0,22.528-0.309,23.163-0.943C1555.396,109.87,1554.603,107.507,1552.081,103.725z M1565.792,126.411l-4.26-6.613h-52.472
				v18.428h30.253c12.608,0,20.809-0.149,24.582-0.467c3.792-0.309,5.679-1.419,5.679-3.306
				C1569.574,133.192,1568.305,130.512,1565.792,126.411z"/>
			<path fill="#FFFFFF" d="M1845.642,11.539c9.451-3.148,21.743-4.726,36.874-4.726c12.291,0,21.901,1.102,28.832,3.306
				c19.54,5.67,35.622,15.836,48.231,30.491c12.591,14.654,19.063,30.658,19.381,47.984c0,9.452-1.588,14.179-4.727,14.179
				c-2.222,0-3.721-0.776-4.497-2.363c-0.794-1.569-1.816-5.67-3.068-12.292c-2.839-15.756-8.518-28.833-17.018-39.237
				c-3.156-4.091-7.724-8.341-13.72-12.758c-5.979-4.409-10.246-6.622-12.768-6.622h-0.458c-1.905,0.635-21.744,18.754-59.57,54.368
				l-56.731,53.416l7.566,7.565c10.404,10.404,33.082,20.8,68.069,31.205c26.787,8.2,45.868,15.051,57.207,20.562
				c11.339,5.52,20.95,12.688,28.833,21.506c12.291,13.561,18.904,31.204,19.856,52.947v8.984c0,9.77-1.111,18.129-3.315,25.051
				c-10.087,33.092-33.559,55.311-70.433,66.658c-9.135,2.523-19.54,3.783-31.196,3.783c-16.4,0-29.943-1.895-40.666-5.67
				c-19.539-6.313-34.669-15.766-45.373-28.365c-6.613-7.564-12.38-17.652-17.265-30.262c-4.885-12.6-7.318-22.846-7.318-30.727
				c0-4.092,0.775-6.922,2.362-8.51c1.57-1.57,2.998-2.363,4.25-2.363c3.792,0,6.313,5.203,7.565,15.607
				c2.522,18.596,9.771,34.502,21.744,47.746c11.974,13.234,27.581,22.051,46.802,26.469c8.518,1.887,16.859,2.84,25.06,2.84
				c18.904,0,36.469-4.418,52.71-13.234c16.224-8.836,27.651-20.643,34.282-35.465c5.343-11.656,8.023-24.414,8.023-38.285
				c0-12.6-2.046-23.16-6.137-31.679c-5.361-11.966-14.654-21.895-27.898-29.776c-13.226-7.874-34.353-16.233-63.344-25.06
				c-21.126-6.295-37.351-12.124-48.689-17.493c-27.422-13.544-43.028-33.4-46.803-59.562c-0.635-6.295-0.952-10.713-0.952-13.234
				c0-19.857,5.749-37.738,17.265-53.654C1810.107,28.953,1825.784,17.843,1845.642,11.539z M1876.378,19.104
				c-5.678,0.635-10.104,1.887-13.243,3.782c-3.157,1.887-7.724,5.828-13.702,11.815c-7.883,7.883-19.398,19.072-34.512,33.567
				c-9.152,8.826-14.9,14.734-17.264,17.723c-2.363,2.998-3.545,6.075-3.545,9.223c0,2.521,0.159,4.179,0.477,4.964
				c0.3,0.785,1.093,0.864,2.363,0.229c3.139-1.887,17.723-15.36,43.733-40.419c25.993-25.05,38.99-38.206,38.99-39.466
				C1879.676,19.571,1878.565,19.104,1876.378,19.104z M1911.348,25.25c0-0.952-2.116-1.896-6.384-2.839
				c-4.25-0.944-7.159-1.42-8.746-1.42c-1.57,0-18.658,15.527-51.282,46.564c-32.624,31.046-48.937,47.358-48.937,48.928
				c0,1.587,0.953,4.259,2.84,8.041l2.363,5.193l11.356-9.919C1878.424,58.024,1911.348,26.511,1911.348,25.25z M1827.671,43.211
				c2.84-2.839,5.449-5.511,7.813-8.033s4.162-4.567,5.432-6.146l1.887-1.896c-0.635,0-4.091,1.737-10.404,5.202
				c-12.926,7.257-22.379,16.542-28.356,27.89l-4.25,8.041l5.661-4.259C1811.13,59.285,1818.536,52.354,1827.671,43.211z"/>
		</g>
	</g>
	<g>
		<path fill="#C64E53" d="M3315.102,8.919c-16.713,6.131-36.946,13.749-36.946,13.749l-118,122l-80.666,2l-5.604,213.333
			l-127.109-222.888l-157.771,9.334c-4.097,19.877-6.253,40.463-6.253,61.553c0,167.563,135.838,303.401,303.4,303.401
			c167.563,0,303.402-135.838,303.402-303.401C3389.556,131.819,3361.473,62.201,3315.102,8.919z"/>
		<path fill="#303030" d="M3073.886,360.001l5.604-213.333l80.666-2l118-122c0,0,20.233-7.617,36.946-13.749
			c-55.624-63.914-137.565-104.32-228.948-104.32c-146.473,0-268.699,103.797-297.147,241.849l157.771-9.334L3073.886,360.001z"/>
		<g>
			<path fill="#FFFFFF" d="M2861.019,6.337c0.309-0.943,0.952-1.42,1.887-1.42c2.205,0,7.248,6.313,15.131,18.913
				c7.874,12.609,26.002,42.711,54.368,90.29c11.974,20.491,30.252,51.141,54.835,91.947c24.583,40.815,38.92,64.692,43.02,71.622
				l40.657,67.604l0.467-167.829c0.317-112.192,1.429-169.073,3.315-170.651c2.205-1.579,4.25-1.579,6.137,0
				c1.896,1.578,2.84,34.669,2.84,99.274v85.564c-0.317,90.765-0.635,143.862-0.943,159.312
				c-0.318,15.439-1.578,23.162-3.783,23.162c-3.156,0-27.422-37.984-72.796-113.928l-68.546-113.929h-68.079v112.509
				c0,53.582-0.237,86.428-0.714,98.568c-0.468,12.125-1.967,18.199-4.479,18.199c-0.635,0-1.27-0.168-1.896-0.477
				c-1.896-0.635-2.84-62.082-2.84-184.361S2860.075,6.972,2861.019,6.337z M2902.143,87.65c0-1.896-5.36-11.507-16.065-28.842
				l-16.55-26.47v57.198h16.55C2896.782,89.537,2902.143,88.911,2902.143,87.65z M2912.548,103.725
				c-1.579-2.839-3.475-4.567-5.679-5.202c-2.204-0.626-8.032-0.944-17.485-0.944h-19.856v14.178h22.22
				c14.805,0,22.528-0.309,23.163-0.943C2915.862,109.87,2915.069,107.507,2912.548,103.725z M2926.259,126.411l-4.26-6.613h-52.472
				v18.428h30.253c12.608,0,20.809-0.149,24.582-0.467c3.792-0.309,5.679-1.419,5.679-3.306
				C2930.041,133.192,2928.771,130.512,2926.259,126.411z"/>
			<path fill="#FFFFFF" d="M3206.108,11.539c9.451-3.148,21.743-4.726,36.874-4.726c12.291,0,21.901,1.102,28.832,3.306
				c19.54,5.67,35.622,15.836,48.231,30.491c12.591,14.654,19.063,30.658,19.381,47.984c0,9.452-1.588,14.179-4.727,14.179
				c-2.222,0-3.721-0.776-4.497-2.363c-0.794-1.569-1.816-5.67-3.068-12.292c-2.839-15.756-8.518-28.833-17.018-39.237
				c-3.156-4.091-7.724-8.341-13.72-12.758c-5.979-4.409-10.246-6.622-12.768-6.622h-0.458c-1.905,0.635-21.744,18.754-59.57,54.368
				l-56.731,53.416l7.566,7.565c10.404,10.404,33.082,20.8,68.069,31.205c26.787,8.2,45.868,15.051,57.207,20.562
				c11.339,5.52,20.95,12.688,28.833,21.506c12.291,13.561,18.904,31.204,19.856,52.947v8.984c0,9.77-1.111,18.129-3.315,25.051
				c-10.087,33.092-33.559,55.311-70.433,66.658c-9.135,2.523-19.54,3.783-31.196,3.783c-16.4,0-29.943-1.895-40.666-5.67
				c-19.539-6.313-34.669-15.766-45.373-28.365c-6.613-7.564-12.38-17.652-17.265-30.262c-4.885-12.6-7.318-22.846-7.318-30.727
				c0-4.092,0.775-6.922,2.362-8.51c1.57-1.57,2.998-2.363,4.25-2.363c3.792,0,6.313,5.203,7.565,15.607
				c2.522,18.596,9.771,34.502,21.744,47.746c11.974,13.234,27.581,22.051,46.802,26.469c8.518,1.887,16.859,2.84,25.06,2.84
				c18.904,0,36.469-4.418,52.71-13.234c16.224-8.836,27.651-20.643,34.282-35.465c5.343-11.656,8.023-24.414,8.023-38.285
				c0-12.6-2.046-23.16-6.137-31.679c-5.361-11.966-14.654-21.895-27.898-29.776c-13.226-7.874-34.353-16.233-63.344-25.06
				c-21.126-6.295-37.351-12.124-48.689-17.493c-27.422-13.544-43.028-33.4-46.803-59.562c-0.635-6.295-0.952-10.713-0.952-13.234
				c0-19.857,5.749-37.738,17.265-53.654C3170.574,28.953,3186.251,17.843,3206.108,11.539z M3236.845,19.104
				c-5.678,0.635-10.104,1.887-13.243,3.782c-3.157,1.887-7.724,5.828-13.702,11.815c-7.883,7.883-19.398,19.072-34.512,33.567
				c-9.152,8.826-14.9,14.734-17.264,17.723c-2.363,2.998-3.545,6.075-3.545,9.223c0,2.521,0.159,4.179,0.477,4.964
				c0.3,0.785,1.093,0.864,2.363,0.229c3.139-1.887,17.723-15.36,43.733-40.419c25.993-25.05,38.99-38.206,38.99-39.466
				C3240.143,19.571,3239.032,19.104,3236.845,19.104z M3271.814,25.25c0-0.952-2.116-1.896-6.384-2.839
				c-4.25-0.944-7.159-1.42-8.746-1.42c-1.57,0-18.658,15.527-51.282,46.564c-32.624,31.046-48.937,47.358-48.937,48.928
				c0,1.587,0.953,4.259,2.84,8.041l2.363,5.193l11.356-9.919C3238.891,58.024,3271.814,26.511,3271.814,25.25z M3188.138,43.211
				c2.84-2.839,5.449-5.511,7.813-8.033s4.162-4.567,5.432-6.146l1.887-1.896c-0.635,0-4.091,1.737-10.404,5.202
				c-12.926,7.257-22.379,16.542-28.356,27.89l-4.25,8.041l5.661-4.259C3171.597,59.285,3179.003,52.354,3188.138,43.211z"/>
		</g>
	</g>
	<g>
		<path fill="#303030" d="M3960.069,8.919c-16.713,6.131-36.946,13.749-36.946,13.749l-118,122l-80.666,2l-5.604,213.333
			l-127.109-222.888l-157.771,9.334c-4.097,19.877-6.253,40.463-6.253,61.553c0,167.563,135.838,303.401,303.4,303.401
			c167.563,0,303.402-135.838,303.402-303.401C4034.523,131.819,4006.44,62.201,3960.069,8.919z"/>
		<path fill="#C64E53" d="M3718.854,360.001l5.604-213.333l80.666-2l118-122c0,0,20.233-7.617,36.946-13.749
			c-55.624-63.914-137.565-104.32-228.948-104.32c-146.473,0-268.699,103.797-297.147,241.849l157.771-9.334L3718.854,360.001z"/>
		<g>
			<path fill="#FFFFFF" d="M3505.986,6.337c0.309-0.943,0.952-1.42,1.887-1.42c2.205,0,7.248,6.313,15.131,18.913
				c7.874,12.609,26.002,42.711,54.368,90.29c11.974,20.491,30.252,51.141,54.835,91.947c24.583,40.815,38.92,64.692,43.02,71.622
				l40.657,67.604l0.467-167.829c0.317-112.192,1.429-169.073,3.315-170.651c2.205-1.579,4.25-1.579,6.137,0
				c1.896,1.578,2.84,34.669,2.84,99.274v85.564c-0.317,90.765-0.635,143.862-0.943,159.312
				c-0.318,15.439-1.578,23.162-3.783,23.162c-3.156,0-27.422-37.984-72.796-113.928l-68.546-113.929h-68.079v112.509
				c0,53.582-0.237,86.428-0.714,98.568c-0.468,12.125-1.967,18.199-4.479,18.199c-0.635,0-1.27-0.168-1.896-0.477
				c-1.896-0.635-2.84-62.082-2.84-184.361S3505.043,6.972,3505.986,6.337z M3547.11,87.65c0-1.896-5.36-11.507-16.065-28.842
				l-16.55-26.47v57.198h16.55C3541.75,89.537,3547.11,88.911,3547.11,87.65z M3557.516,103.725
				c-1.579-2.839-3.475-4.567-5.679-5.202c-2.204-0.626-8.032-0.944-17.485-0.944h-19.856v14.178h22.22
				c14.805,0,22.528-0.309,23.163-0.943C3560.83,109.87,3560.037,107.507,3557.516,103.725z M3571.227,126.411l-4.26-6.613h-52.472
				v18.428h30.253c12.608,0,20.809-0.149,24.582-0.467c3.792-0.309,5.679-1.419,5.679-3.306
				C3575.009,133.192,3573.739,130.512,3571.227,126.411z"/>
			<path fill="#FFFFFF" d="M3851.076,11.539c9.451-3.148,21.743-4.726,36.874-4.726c12.291,0,21.901,1.102,28.832,3.306
				c19.54,5.67,35.622,15.836,48.231,30.491c12.591,14.654,19.063,30.658,19.381,47.984c0,9.452-1.588,14.179-4.727,14.179
				c-2.222,0-3.721-0.776-4.497-2.363c-0.794-1.569-1.816-5.67-3.068-12.292c-2.839-15.756-8.518-28.833-17.018-39.237
				c-3.156-4.091-7.724-8.341-13.72-12.758c-5.979-4.409-10.246-6.622-12.768-6.622h-0.458c-1.905,0.635-21.744,18.754-59.57,54.368
				l-56.731,53.416l7.566,7.565c10.404,10.404,33.082,20.8,68.069,31.205c26.787,8.2,45.868,15.051,57.207,20.562
				c11.339,5.52,20.95,12.688,28.833,21.506c12.291,13.561,18.904,31.204,19.856,52.947v8.984c0,9.77-1.111,18.129-3.315,25.051
				c-10.087,33.092-33.559,55.311-70.433,66.658c-9.135,2.523-19.54,3.783-31.196,3.783c-16.4,0-29.943-1.895-40.666-5.67
				c-19.539-6.313-34.669-15.766-45.373-28.365c-6.613-7.564-12.38-17.652-17.265-30.262c-4.885-12.6-7.318-22.846-7.318-30.727
				c0-4.092,0.775-6.922,2.362-8.51c1.57-1.57,2.998-2.363,4.25-2.363c3.792,0,6.313,5.203,7.565,15.607
				c2.522,18.596,9.771,34.502,21.744,47.746c11.974,13.234,27.581,22.051,46.802,26.469c8.518,1.887,16.859,2.84,25.06,2.84
				c18.904,0,36.469-4.418,52.71-13.234c16.224-8.836,27.651-20.643,34.282-35.465c5.343-11.656,8.023-24.414,8.023-38.285
				c0-12.6-2.046-23.16-6.137-31.679c-5.361-11.966-14.654-21.895-27.898-29.776c-13.226-7.874-34.353-16.233-63.344-25.06
				c-21.126-6.295-37.351-12.124-48.689-17.493c-27.422-13.544-43.028-33.4-46.803-59.562c-0.635-6.295-0.952-10.713-0.952-13.234
				c0-19.857,5.749-37.738,17.265-53.654C3815.542,28.953,3831.219,17.843,3851.076,11.539z M3881.813,19.104
				c-5.678,0.635-10.104,1.887-13.243,3.782c-3.157,1.887-7.724,5.828-13.702,11.815c-7.883,7.883-19.398,19.072-34.512,33.567
				c-9.152,8.826-14.9,14.734-17.264,17.723c-2.363,2.998-3.545,6.075-3.545,9.223c0,2.521,0.159,4.179,0.477,4.964
				c0.3,0.785,1.093,0.864,2.363,0.229c3.139-1.887,17.723-15.36,43.733-40.419c25.993-25.05,38.99-38.206,38.99-39.466
				C3885.11,19.571,3884,19.104,3881.813,19.104z M3916.782,25.25c0-0.952-2.116-1.896-6.384-2.839
				c-4.25-0.944-7.159-1.42-8.746-1.42c-1.57,0-18.658,15.527-51.282,46.564c-32.624,31.046-48.937,47.358-48.937,48.928
				c0,1.587,0.953,4.259,2.84,8.041l2.363,5.193l11.356-9.919C3883.858,58.024,3916.782,26.511,3916.782,25.25z M3833.105,43.211
				c2.84-2.839,5.449-5.511,7.813-8.033s4.162-4.567,5.432-6.146l1.887-1.896c-0.635,0-4.091,1.737-10.404,5.202
				c-12.926,7.257-22.379,16.542-28.356,27.89l-4.25,8.041l5.661-4.259C3816.564,59.285,3823.971,52.354,3833.105,43.211z"/>
		</g>
	</g>
	<text transform="matrix(1 0 0 1 2912.457 431.5811)" fill="#FFFFFF" font-family="'PoiretOne-Regular'" font-size="52.3578">Noelia Sutara</text>
	<text transform="matrix(1 0 0 1 3581.791 431.5811)" fill="#FFFFFF" font-family="'PoiretOne-Regular'" font-size="52.3578">Noelia Sutara</text>
	<g>
		<path fill="#C64E53" d="M434.677,89.414c-13.48,4.945-29.802,11.09-29.802,11.09l-95.125,97.08l-65.126,2.943l-4.52,172.083
			L137.573,192.82L10.31,200.349C7.005,216.384,5.266,232.988,5.266,250c0,135.162,109.572,244.734,244.733,244.734
			c135.163,0,244.735-109.572,244.735-244.734C494.734,188.55,472.082,132.393,434.677,89.414z"/>
		<path fill="#303030" d="M240.104,372.609l4.52-172.083L309.333,198l102.917-96.75c0,0,8.946-6.891,22.427-11.836
			C389.809,37.859,323.711,5.266,249.999,5.266c-118.15,0-216.742,83.727-239.689,195.083l124.565-0.599L240.104,372.609z"/>
		<g>
			<path fill="#FFFFFF" d="M68.397,87.332c0.249-0.761,0.768-1.146,1.522-1.146c1.779,0,5.847,5.093,12.205,15.256
				c6.351,10.171,20.974,34.452,43.855,72.831c9.658,16.529,24.402,41.252,44.231,74.168c19.83,32.923,31.395,52.183,34.701,57.772
				l32.796,54.532l0.376-135.378c0.256-90.498,1.152-136.38,2.675-137.653c1.779-1.273,3.428-1.273,4.95,0
				c1.529,1.273,2.291,27.966,2.291,80.078v69.02c-0.256,73.215-0.513,116.045-0.762,128.507
				c-0.256,12.453-1.273,18.684-3.051,18.684c-2.546,0-22.12-30.64-58.72-91.899l-55.292-91.899H75.261v90.754
				c0,43.222-0.192,69.716-0.577,79.51c-0.377,9.78-1.586,14.68-3.613,14.68c-0.511,0-1.023-0.135-1.528-0.385
				c-1.53-0.513-2.291-50.077-2.291-148.712C67.252,137.417,67.637,87.843,68.397,87.332z M101.569,152.922
				c0-1.529-4.324-9.282-12.958-23.265l-13.35-21.352v46.138h13.35C97.246,154.444,101.569,153.939,101.569,152.922z
				 M109.963,165.888c-1.274-2.291-2.803-3.685-4.581-4.197c-1.778-0.505-6.479-0.762-14.104-0.762H75.261v11.438h17.923
				c11.942,0,18.172-0.25,18.685-0.761C112.636,170.845,111.997,168.939,109.963,165.888z M121.023,184.188l-3.437-5.335H75.261
				v14.866h24.402c10.171,0,16.786-0.121,19.829-0.377c3.059-0.25,4.581-1.145,4.581-2.667
				C124.074,189.657,123.049,187.495,121.023,184.188z"/>
			<path fill="#FFFFFF" d="M346.759,91.527c7.624-2.539,17.539-3.813,29.744-3.813c9.914,0,17.667,0.89,23.257,2.667
				c15.762,4.573,28.734,12.774,38.906,24.594c10.156,11.821,15.376,24.73,15.632,38.706c0,7.625-1.28,11.437-3.813,11.437
				c-1.791,0-3.001-0.625-3.628-1.906c-0.64-1.266-1.464-4.574-2.475-9.915c-2.289-12.709-6.869-23.257-13.726-31.65
				c-2.547-3.3-6.231-6.729-11.067-10.292c-4.822-3.557-8.265-5.342-10.299-5.342h-0.369c-1.537,0.512-17.54,15.127-48.053,43.855
				l-45.762,43.087l6.104,6.102c8.392,8.393,26.686,16.778,54.907,25.171c21.606,6.614,36.998,12.141,46.145,16.586
				c9.146,4.452,16.899,10.235,23.258,17.347c9.915,10.938,15.25,25.17,16.017,42.709v7.247c0,7.88-0.896,14.624-2.675,20.207
				c-8.136,26.693-27.069,44.616-56.813,53.77c-7.369,2.035-15.762,3.051-25.164,3.051c-13.229,0-24.153-1.528-32.802-4.573
				c-15.762-5.092-27.966-12.717-36.601-22.881c-5.334-6.101-9.985-14.238-13.926-24.41c-3.939-10.163-5.903-18.428-5.903-24.785
				c0-3.3,0.626-5.584,1.906-6.863c1.267-1.268,2.418-1.907,3.427-1.907c3.06,0,5.094,4.197,6.104,12.59
				c2.034,15,7.881,27.83,17.539,38.514c9.658,10.675,22.247,17.787,37.752,21.351c6.871,1.522,13.6,2.29,20.215,2.29
				c15.248,0,29.417-3.563,42.517-10.675c13.087-7.127,22.305-16.65,27.654-28.606c4.31-9.402,6.472-19.694,6.472-30.883
				c0-10.163-1.65-18.682-4.949-25.553c-4.326-9.652-11.821-17.661-22.505-24.02c-10.669-6.351-27.71-13.094-51.096-20.213
				c-17.041-5.078-30.128-9.78-39.274-14.111c-22.12-10.925-34.708-26.942-37.753-48.044c-0.513-5.079-0.769-8.642-0.769-10.676
				c0-16.018,4.638-30.441,13.927-43.28C318.097,105.575,330.741,96.613,346.759,91.527z M371.553,97.63
				c-4.58,0.512-8.151,1.522-10.684,3.05c-2.546,1.522-6.229,4.702-11.052,9.531c-6.358,6.358-15.647,15.384-27.838,27.076
				c-7.384,7.12-12.02,11.886-13.927,14.296c-1.905,2.418-2.858,4.901-2.858,7.44c0,2.034,0.128,3.37,0.384,4.004
				c0.242,0.633,0.882,0.697,1.906,0.185c2.532-1.522,14.296-12.39,35.277-32.603c20.968-20.207,31.451-30.819,31.451-31.835
				C374.213,98.007,373.316,97.63,371.553,97.63z M399.76,102.587c0-0.768-1.707-1.528-5.148-2.29
				c-3.429-0.762-5.776-1.145-7.055-1.145c-1.268,0-15.051,12.524-41.367,37.56c-26.314,25.043-39.473,38.2-39.473,39.467
				c0,1.28,0.768,3.436,2.29,6.486l1.905,4.189l9.16-8.002C373.202,129.024,399.76,103.604,399.76,102.587z M332.264,117.076
				c2.29-2.291,4.396-4.445,6.302-6.48c1.906-2.034,3.356-3.684,4.382-4.958l1.521-1.529c-0.513,0-3.3,1.401-8.394,4.197
				c-10.426,5.854-18.051,13.343-22.872,22.497l-3.429,6.486l4.566-3.435C318.921,130.042,324.896,124.451,332.264,117.076z"/>
		</g>
	</g>
</g>
</svg>
